<?xml version="1.0" standalone="yes"?>

<svg version="1.1" viewBox="0.0 0.0 348.0 348.0" fill="none" stroke="none" stroke-linecap="square" stroke-miterlimit="10" xmlns="http://www.w3.org/2000/svg" xmlns:xlink="http://www.w3.org/1999/xlink"><clipPath id="p.0"><path d="m0 0l348.0 0l0 348.0l-348.0 0l0 -348.0z" clip-rule="nonzero"></path></clipPath><g clip-path="url(#p.0)"><path fill="#000000" fill-opacity="0.0" d="m0 0l348.0 0l0 348.0l-348.0 0z" fill-rule="nonzero"></path><path fill="#ffffff" d="m-6.0 0l348.0 0l0 347.9685l-348.0 0z" fill-rule="nonzero"></path><path fill="#000000" fill-opacity="0.0" d="m5.07874 5.7758217l336.9134 0l0 337.66928l-336.9134 0z" fill-rule="nonzero"></path><path stroke="#000000" stroke-width="2.0" stroke-linejoin="round" stroke-linecap="butt" d="m5.07874 5.7758217l336.9134 0l0 337.66928l-336.9134 0z" fill-rule="nonzero"></path><path fill="#ffffff" d="m282.73444 40.553925l0 0c0 -8.375591 6.966034 -15.165352 15.5590515 -15.165352l0 0c4.126526 0 8.084015 1.5977726 11.001923 4.441828c2.9178772 2.844057 4.557129 6.7014217 4.557129 10.723524l0 0c0 8.375595 -6.9660034 15.165356 -15.5590515 15.165356l0 0c-8.593018 0 -15.5590515 -6.7897606 -15.5590515 -15.165356z" fill-rule="nonzero"></path><path stroke="#000000" stroke-width="2.0" stroke-linejoin="round" stroke-linecap="butt" d="m282.73444 40.553925l0 0c0 -8.375591 6.966034 -15.165352 15.5590515 -15.165352l0 0c4.126526 0 8.084015 1.5977726 11.001923 4.441828c2.9178772 2.844057 4.557129 6.7014217 4.557129 10.723524l0 0c0 8.375595 -6.9660034 15.165356 -15.5590515 15.165356l0 0c-8.593018 0 -15.5590515 -6.7897606 -15.5590515 -15.165356z" fill-rule="nonzero"></path><path fill="#ffffff" d="m26.23491 95.27034l0 0c0 -9.828056 7.9672165 -17.795273 17.795273 -17.795273l0 0c4.7196007 0 9.245899 1.874855 12.58316 5.2121124c3.3372612 3.337265 5.2121162 7.8635635 5.2121162 12.58316l0 0c0 9.828064 -7.9672165 17.79528 -17.795277 17.79528l0 0c-9.828056 0 -17.795273 -7.9672165 -17.795273 -17.79528z" fill-rule="nonzero"></path><path stroke="#000000" stroke-width="1.0" stroke-linejoin="round" stroke-linecap="butt" d="m26.23491 95.27034l0 0c0 -9.828056 7.9672165 -17.795273 17.795273 -17.795273l0 0c4.7196007 0 9.245899 1.874855 12.58316 5.2121124c3.3372612 3.337265 5.2121162 7.8635635 5.2121162 12.58316l0 0c0 9.828064 -7.9672165 17.79528 -17.795277 17.79528l0 0c-9.828056 0 -17.795273 -7.9672165 -17.795273 -17.79528z" fill-rule="nonzero"></path><path fill="#ffffff" d="m26.233595 304.8609l0 0c0 -9.828064 7.9672184 -17.795288 17.795275 -17.795288l0 0c4.7196007 0 9.245899 1.8748474 12.58316 5.2121277c3.3372612 3.3372498 5.2121162 7.863556 5.2121162 12.58316l0 0c0 9.828064 -7.9672165 17.795258 -17.795277 17.795258l0 0c-9.828056 0 -17.795275 -7.9671936 -17.795275 -17.795258z" fill-rule="nonzero"></path><path stroke="#000000" stroke-width="1.0" stroke-linejoin="round" stroke-linecap="butt" d="m26.233595 304.8609l0 0c0 -9.828064 7.9672184 -17.795288 17.795275 -17.795288l0 0c4.7196007 0 9.245899 1.8748474 12.58316 5.2121277c3.3372612 3.3372498 5.2121162 7.863556 5.2121162 12.58316l0 0c0 9.828064 -7.9672165 17.795258 -17.795277 17.795258l0 0c-9.828056 0 -17.795275 -7.9671936 -17.795275 -17.795258z" fill-rule="nonzero"></path><path fill="#ffffff" d="m89.80118 95.27034l0 0c0 -9.828056 7.9672165 -17.795273 17.79528 -17.795273l0 0c4.719597 0 9.245895 1.874855 12.58316 5.2121124c3.3372574 3.337265 5.2121124 7.8635635 5.2121124 12.58316l0 0c0 9.828064 -7.9672165 17.79528 -17.795273 17.79528l0 0c-9.828064 0 -17.79528 -7.9672165 -17.79528 -17.79528z" fill-rule="nonzero"></path><path stroke="#000000" stroke-width="1.0" stroke-linejoin="round" stroke-linecap="butt" d="m89.80118 95.27034l0 0c0 -9.828056 7.9672165 -17.795273 17.79528 -17.795273l0 0c4.719597 0 9.245895 1.874855 12.58316 5.2121124c3.3372574 3.337265 5.2121124 7.8635635 5.2121124 12.58316l0 0c0 9.828064 -7.9672165 17.79528 -17.795273 17.79528l0 0c-9.828064 0 -17.79528 -7.9672165 -17.79528 -17.79528z" fill-rule="nonzero"></path><path fill="#ffffff" d="m89.799866 304.8609l0 0c0 -9.828064 7.9672165 -17.795288 17.79528 -17.795288l0 0c4.719597 0 9.245895 1.8748474 12.58316 5.2121277c3.3372574 3.3372498 5.2121124 7.863556 5.2121124 12.58316l0 0c0 9.828064 -7.9672165 17.795258 -17.795273 17.795258l0 0c-9.828064 0 -17.79528 -7.9671936 -17.79528 -17.795258z" fill-rule="nonzero"></path><path stroke="#000000" stroke-width="1.0" stroke-linejoin="round" stroke-linecap="butt" d="m89.799866 304.8609l0 0c0 -9.828064 7.9672165 -17.795288 17.79528 -17.795288l0 0c4.719597 0 9.245895 1.8748474 12.58316 5.2121277c3.3372574 3.3372498 5.2121124 7.863556 5.2121124 12.58316l0 0c0 9.828064 -7.9672165 17.795258 -17.795273 17.795258l0 0c-9.828064 0 -17.79528 -7.9671936 -17.79528 -17.795258z" fill-rule="nonzero"></path><path fill="#ffffff" d="m153.36745 95.27034l0 0c0 -9.828056 7.967224 -17.795273 17.795288 -17.795273l0 0c4.719589 0 9.245895 1.874855 12.58316 5.2121124c3.3372498 3.337265 5.2121124 7.8635635 5.2121124 12.58316l0 0c0 9.828064 -7.967224 17.79528 -17.795273 17.79528l0 0c-9.828064 0 -17.795288 -7.9672165 -17.795288 -17.79528z" fill-rule="nonzero"></path><path stroke="#000000" stroke-width="1.0" stroke-linejoin="round" stroke-linecap="butt" d="m153.36745 95.27034l0 0c0 -9.828056 7.967224 -17.795273 17.795288 -17.795273l0 0c4.719589 0 9.245895 1.874855 12.58316 5.2121124c3.3372498 3.337265 5.2121124 7.8635635 5.2121124 12.58316l0 0c0 9.828064 -7.967224 17.79528 -17.795273 17.79528l0 0c-9.828064 0 -17.795288 -7.9672165 -17.795288 -17.79528z" fill-rule="nonzero"></path><path fill="#ffffff" d="m153.36613 304.8609l0 0c0 -9.828064 7.967224 -17.795288 17.795288 -17.795288l0 0c4.719589 0 9.245895 1.8748474 12.58316 5.2121277c3.3372498 3.3372498 5.2121124 7.863556 5.2121124 12.58316l0 0c0 9.828064 -7.967224 17.795258 -17.795273 17.795258l0 0c-9.828064 0 -17.795288 -7.9671936 -17.795288 -17.795258z" fill-rule="nonzero"></path><path stroke="#000000" stroke-width="1.0" stroke-linejoin="round" stroke-linecap="butt" d="m153.36613 304.8609l0 0c0 -9.828064 7.967224 -17.795288 17.795288 -17.795288l0 0c4.719589 0 9.245895 1.8748474 12.58316 5.2121277c3.3372498 3.3372498 5.2121124 7.863556 5.2121124 12.58316l0 0c0 9.828064 -7.967224 17.795258 -17.795273 17.795258l0 0c-9.828064 0 -17.795288 -7.9671936 -17.795288 -17.795258z" fill-rule="nonzero"></path><path fill="#ffffff" d="m216.93373 95.27034l0 0c0 -9.828056 7.967209 -17.795273 17.795273 -17.795273l0 0c4.7196045 0 9.245895 1.874855 12.58316 5.2121124c3.337265 3.337265 5.2121124 7.8635635 5.2121124 12.58316l0 0c0 9.828064 -7.967209 17.79528 -17.795273 17.79528l0 0c-9.828064 0 -17.795273 -7.9672165 -17.795273 -17.79528z" fill-rule="nonzero"></path><path stroke="#000000" stroke-width="1.0" stroke-linejoin="round" stroke-linecap="butt" d="m216.93373 95.27034l0 0c0 -9.828056 7.967209 -17.795273 17.795273 -17.795273l0 0c4.7196045 0 9.245895 1.874855 12.58316 5.2121124c3.337265 3.337265 5.2121124 7.8635635 5.2121124 12.58316l0 0c0 9.828064 -7.967209 17.79528 -17.795273 17.79528l0 0c-9.828064 0 -17.795273 -7.9672165 -17.795273 -17.79528z" fill-rule="nonzero"></path><path fill="#ffffff" d="m216.93242 304.8609l0 0c0 -9.828064 7.967209 -17.795288 17.795273 -17.795288l0 0c4.7196045 0 9.245895 1.8748474 12.58316 5.2121277c3.337265 3.3372498 5.2121124 7.863556 5.2121124 12.58316l0 0c0 9.828064 -7.967209 17.795258 -17.795273 17.795258l0 0c-9.828064 0 -17.795273 -7.9671936 -17.795273 -17.795258z" fill-rule="nonzero"></path><path stroke="#000000" stroke-width="1.0" stroke-linejoin="round" stroke-linecap="butt" d="m216.93242 304.8609l0 0c0 -9.828064 7.967209 -17.795288 17.795273 -17.795288l0 0c4.7196045 0 9.245895 1.8748474 12.58316 5.2121277c3.337265 3.3372498 5.2121124 7.863556 5.2121124 12.58316l0 0c0 9.828064 -7.967209 17.795258 -17.795273 17.795258l0 0c-9.828064 0 -17.795273 -7.9671936 -17.795273 -17.795258z" fill-rule="nonzero"></path><path fill="#ffffff" d="m280.5 95.27034l0 0c0 -9.828056 7.967224 -17.795273 17.795288 -17.795273l0 0c4.719574 0 9.24588 1.874855 12.58316 5.2121124c3.3372498 3.337265 5.212097 7.8635635 5.212097 12.58316l0 0c0 9.828064 -7.967224 17.79528 -17.795258 17.79528l0 0c-9.828064 0 -17.795288 -7.9672165 -17.795288 -17.79528z" fill-rule="nonzero"></path><path stroke="#000000" stroke-width="1.0" stroke-linejoin="round" stroke-linecap="butt" d="m280.5 95.27034l0 0c0 -9.828056 7.967224 -17.795273 17.795288 -17.795273l0 0c4.719574 0 9.24588 1.874855 12.58316 5.2121124c3.3372498 3.337265 5.212097 7.8635635 5.212097 12.58316l0 0c0 9.828064 -7.967224 17.79528 -17.795258 17.79528l0 0c-9.828064 0 -17.795288 -7.9672165 -17.795288 -17.79528z" fill-rule="nonzero"></path><path fill="#ffffff" d="m280.4987 304.8609l0 0c0 -9.828064 7.967224 -17.795288 17.795288 -17.795288l0 0c4.719574 0 9.24588 1.8748474 12.58316 5.2121277c3.3372498 3.3372498 5.212097 7.863556 5.212097 12.58316l0 0c0 9.828064 -7.967224 17.795258 -17.795258 17.795258l0 0c-9.828064 0 -17.795288 -7.9671936 -17.795288 -17.795258z" fill-rule="nonzero"></path><path stroke="#000000" stroke-width="1.0" stroke-linejoin="round" stroke-linecap="butt" d="m280.4987 304.8609l0 0c0 -9.828064 7.967224 -17.795288 17.795288 -17.795288l0 0c4.719574 0 9.24588 1.8748474 12.58316 5.2121277c3.3372498 3.3372498 5.212097 7.863556 5.212097 12.58316l0 0c0 9.828064 -7.967224 17.795258 -17.795258 17.795258l0 0c-9.828064 0 -17.795288 -7.9671936 -17.795288 -17.795258z" fill-rule="nonzero"></path><path fill="#000000" fill-opacity="0.0" d="m14.737533 200.06561l0 0c0 -14.994308 13.114179 -27.149597 29.291336 -27.149597l0 0c16.177162 0 29.291344 12.155289 29.291344 27.149597l0 0c0 14.994324 -13.1141815 27.149612 -29.291344 27.149612l0 0c-16.177158 0 -29.291336 -12.155289 -29.291336 -27.149612z" fill-rule="nonzero"></path><path stroke="#000000" stroke-width="1.0" stroke-linejoin="round" stroke-linecap="butt" d="m14.737533 200.06561l0 0c0 -14.994308 13.114179 -27.149597 29.291336 -27.149597l0 0c16.177162 0 29.291344 12.155289 29.291344 27.149597l0 0c0 14.994324 -13.1141815 27.149612 -29.291344 27.149612l0 0c-16.177158 0 -29.291336 -12.155289 -29.291336 -27.149612z" fill-rule="nonzero"></path><path fill="#ffffff" d="m26.060368 116.83727l8.984253 83.40157l17.968502 0l8.984253 -83.40157z" fill-rule="nonzero"></path><path stroke="#000000" stroke-width="1.0" stroke-linejoin="round" stroke-linecap="butt" d="m26.060368 116.83727l8.984253 83.40157l17.968502 0l8.984253 -83.40157z" fill-rule="nonzero"></path><path fill="#000000" fill-opacity="0.0" d="m78.3038 200.06561l0 0c0 -14.994308 13.1141815 -27.149597 29.291344 -27.149597l0 0c16.177155 0 29.291344 12.155289 29.291344 27.149597l0 0c0 14.994324 -13.114189 27.149612 -29.291344 27.149612l0 0c-16.177162 0 -29.291344 -12.155289 -29.291344 -27.149612z" fill-rule="nonzero"></path><path stroke="#000000" stroke-width="1.0" stroke-linejoin="round" stroke-linecap="butt" d="m78.3038 200.06561l0 0c0 -14.994308 13.1141815 -27.149597 29.291344 -27.149597l0 0c16.177155 0 29.291344 12.155289 29.291344 27.149597l0 0c0 14.994324 -13.114189 27.149612 -29.291344 27.149612l0 0c-16.177162 0 -29.291344 -12.155289 -29.291344 -27.149612z" fill-rule="nonzero"></path><path fill="#ffffff" d="m89.62664 283.6404l8.984253 -83.401566l17.968506 0l8.984253 83.401566z" fill-rule="nonzero"></path><path stroke="#000000" stroke-width="1.0" stroke-linejoin="round" stroke-linecap="butt" d="m89.62664 283.6404l8.984253 -83.401566l17.968506 0l8.984253 83.401566z" fill-rule="nonzero"></path><path fill="#000000" fill-opacity="0.0" d="m141.87007 200.06561l0 0c0 -14.994308 13.1141815 -27.149597 29.291351 -27.149597l0 0c16.177155 0 29.291336 12.155289 29.291336 27.149597l0 0c0 14.994324 -13.1141815 27.149612 -29.291336 27.149612l0 0c-16.17717 0 -29.291351 -12.155289 -29.291351 -27.149612z" fill-rule="nonzero"></path><path stroke="#000000" stroke-width="1.0" stroke-linejoin="round" stroke-linecap="butt" d="m141.87007 200.06561l0 0c0 -14.994308 13.1141815 -27.149597 29.291351 -27.149597l0 0c16.177155 0 29.291336 12.155289 29.291336 27.149597l0 0c0 14.994324 -13.1141815 27.149612 -29.291336 27.149612l0 0c-16.17717 0 -29.291351 -12.155289 -29.291351 -27.149612z" fill-rule="nonzero"></path><path fill="#000000" fill-opacity="0.0" d="m205.43636 200.06561l0 0c0 -14.994308 13.1141815 -27.149597 29.291336 -27.149597l0 0c16.177155 0 29.291351 12.155289 29.291351 27.149597l0 0c0 14.994324 -13.114197 27.149612 -29.291351 27.149612l0 0c-16.177155 0 -29.291336 -12.155289 -29.291336 -27.149612z" fill-rule="nonzero"></path><path stroke="#000000" stroke-width="1.0" stroke-linejoin="round" stroke-linecap="butt" d="m205.43636 200.06561l0 0c0 -14.994308 13.1141815 -27.149597 29.291336 -27.149597l0 0c16.177155 0 29.291351 12.155289 29.291351 27.149597l0 0c0 14.994324 -13.114197 27.149612 -29.291351 27.149612l0 0c-16.177155 0 -29.291336 -12.155289 -29.291336 -27.149612z" fill-rule="nonzero"></path><path fill="#000000" fill-opacity="0.0" d="m269.00262 200.06561l0 0c0 -14.994308 13.114166 -27.149597 29.291351 -27.149597l0 0c16.177155 0 29.29132 12.155289 29.29132 27.149597l0 0c0 14.994324 -13.114166 27.149612 -29.29132 27.149612l0 0c-16.177185 0 -29.291351 -12.155289 -29.291351 -27.149612z" fill-rule="nonzero"></path><path stroke="#000000" stroke-width="1.0" stroke-linejoin="round" stroke-linecap="butt" d="m269.00262 200.06561l0 0c0 -14.994308 13.114166 -27.149597 29.291351 -27.149597l0 0c16.177155 0 29.29132 12.155289 29.29132 27.149597l0 0c0 14.994324 -13.114166 27.149612 -29.29132 27.149612l0 0c-16.177185 0 -29.291351 -12.155289 -29.291351 -27.149612z" fill-rule="nonzero"></path><path fill="#ffffff" d="m280.32547 283.6404l8.984253 -83.401566l17.968506 0l8.984253 83.401566z" fill-rule="nonzero"></path><path stroke="#000000" stroke-width="1.0" stroke-linejoin="round" stroke-linecap="butt" d="m280.32547 283.6404l8.984253 -83.401566l17.968506 0l8.984253 83.401566z" fill-rule="nonzero"></path><path fill="#ffffff" d="m153.1916 116.83727l8.984253 83.40157l17.968506 0l8.984253 -83.40157z" fill-rule="nonzero"></path><path stroke="#000000" stroke-width="1.0" stroke-linejoin="round" stroke-linecap="butt" d="m153.1916 116.83727l8.984253 83.40157l17.968506 0l8.984253 -83.40157z" fill-rule="nonzero"></path><path fill="#ffffff" d="m216.75984 116.83727l8.984253 83.40157l17.968506 0l8.984253 -83.40157z" fill-rule="nonzero"></path><path stroke="#000000" stroke-width="1.0" stroke-linejoin="round" stroke-linecap="butt" d="m216.75984 116.83727l8.984253 83.40157l17.968506 0l8.984253 -83.40157z" fill-rule="nonzero"></path></g></svg>

