<?xml version="1.0" standalone="yes"?>

<svg version="1.1" viewBox="0.0 0.0 100.0 184.81627296587928" fill="none" stroke="none" stroke-linecap="square" stroke-miterlimit="10" xmlns="http://www.w3.org/2000/svg" xmlns:xlink="http://www.w3.org/1999/xlink"><clipPath id="p.0"><path d="m0 0l100.0 0l0 184.81627l-100.0 0l0 -184.81627z" clip-rule="nonzero"></path></clipPath><g clip-path="url(#p.0)"><path fill="#000000" fill-opacity="0.0" d="m0 0l100.0 0l0 184.81627l-100.0 0z" fill-rule="nonzero"></path><path fill="#000000" fill-opacity="0.0" d="m20.708662 94.07612l0 0c0 -14.994316 13.11418 -27.149612 29.291338 -27.149612l0 0c16.177162 0 29.291336 12.155296 29.291336 27.149612l0 0c0 14.994308 -13.114174 27.149605 -29.291336 27.149605l0 0c-16.177158 0 -29.291338 -12.155296 -29.291338 -27.149605z" fill-rule="nonzero"></path><path stroke="#000000" stroke-width="1.0" stroke-linejoin="round" stroke-linecap="butt" d="m20.708662 94.07612l0 0c0 -14.994316 13.11418 -27.149612 29.291338 -27.149612l0 0c16.177162 0 29.291336 12.155296 29.291336 27.149612l0 0c0 14.994308 -13.114174 27.149605 -29.291336 27.149605l0 0c-16.177158 0 -29.291338 -12.155296 -29.291338 -27.149605z" fill-rule="nonzero"></path><path fill="#ffffff" d="m32.031498 10.847769l8.984249 83.40157l17.968506 0l8.984253 -83.40157z" fill-rule="nonzero"></path><path stroke="#000000" stroke-width="1.0" stroke-linejoin="round" stroke-linecap="butt" d="m32.031498 10.847769l8.984249 83.40157l17.968506 0l8.984253 -83.40157z" fill-rule="nonzero"></path></g></svg>

